<svg xmlns="http://www.w3.org/2000/svg"  viewBox="0 0 16 16" width="50px" height="50px"><path d="M 9 1 C 9 1.238281 9.027344 1.476563 9.078125 1.738281 L 8.09375 2.5 L 9.25 4.5 L 10.394531 4.03125 C 10.769531 4.351563 11.203125 4.597656 11.679688 4.765625 L 11.84375 6 L 14.15625 6 L 14.320313 4.765625 C 14.558594 4.679688 14.78125 4.5625 15 4.4375 L 15 3.203125 C 14.644531 3.523438 14.222656 3.773438 13.742188 3.894531 L 13.417969 3.976563 L 13.28125 5 L 12.71875 5 L 12.582031 3.976563 L 12.257813 3.894531 C 11.71875 3.757813 11.234375 3.480469 10.859375 3.09375 L 10.621094 2.851563 L 9.675781 3.242188 L 9.398438 2.757813 L 10.214844 2.128906 L 10.125 1.804688 C 10.039063 1.496094 10 1.242188 10 1 Z M 11 1 C 11 2.101563 11.898438 3 13 3 C 14.101563 3 15 2.101563 15 1 L 14 1 C 14 1.550781 13.550781 2 13 2 C 12.449219 2 12 1.550781 12 1 Z M 5.292969 4 L 5.132813 5.226563 C 4.496094 5.425781 3.917969 5.769531 3.429688 6.226563 L 2.265625 5.75 L 1.109375 7.75 L 2.121094 8.53125 C 2.039063 8.871094 2 9.191406 2 9.5 C 2 9.808594 2.039063 10.128906 2.121094 10.46875 L 1.109375 11.25 L 2.265625 13.25 L 3.429688 12.769531 C 3.917969 13.230469 4.496094 13.574219 5.132813 13.777344 L 5.292969 15 L 7.605469 15 L 7.765625 13.820313 C 8.421875 13.625 9.027344 13.28125 9.542969 12.800781 L 10.636719 13.25 L 11.792969 11.25 L 10.863281 10.535156 C 10.957031 10.171875 11 9.832031 11 9.5 C 11 9.167969 10.953125 8.824219 10.859375 8.464844 L 11.789063 7.75 L 10.632813 5.75 L 9.539063 6.199219 C 9.027344 5.71875 8.421875 5.375 7.761719 5.179688 L 7.605469 4 Z M 6.167969 5 L 6.726563 5 L 6.859375 6 L 7.210938 6.070313 C 7.914063 6.21875 8.550781 6.582031 9.058594 7.128906 L 9.296875 7.382813 L 10.203125 7.007813 L 10.484375 7.492188 L 9.703125 8.09375 L 9.8125 8.429688 C 9.9375 8.820313 10 9.171875 10 9.5 C 10 9.828125 9.9375 10.179688 9.8125 10.570313 L 9.703125 10.90625 L 10.484375 11.507813 L 10.207031 11.992188 L 9.296875 11.613281 L 9.058594 11.871094 C 8.554688 12.417969 7.914063 12.78125 7.210938 12.925781 L 6.863281 13 L 6.730469 14 L 6.167969 14 L 6.03125 12.976563 L 5.695313 12.898438 C 5.015625 12.738281 4.398438 12.371094 3.921875 11.84375 L 3.683594 11.582031 L 2.695313 11.992188 L 2.414063 11.507813 L 3.273438 10.84375 L 3.171875 10.515625 C 3.054688 10.136719 3 9.8125 3 9.5 C 3 9.1875 3.054688 8.863281 3.171875 8.484375 L 3.273438 8.15625 L 2.414063 7.492188 L 2.695313 7.007813 L 3.683594 7.417969 L 3.921875 7.15625 C 4.398438 6.628906 5.015625 6.265625 5.695313 6.101563 L 6.03125 6.023438 Z M 6.5 7 C 5.121094 7 4 8.121094 4 9.5 C 4 10.878906 5.121094 12 6.5 12 C 7.878906 12 9 10.878906 9 9.5 C 9 8.121094 7.878906 7 6.5 7 Z M 6.5 8 C 7.328125 8 8 8.671875 8 9.5 C 8 10.328125 7.328125 11 6.5 11 C 5.671875 11 5 10.328125 5 9.5 C 5 8.671875 5.671875 8 6.5 8 Z"/></svg>