<svg xmlns="http://www.w3.org/2000/svg"  viewBox="0 0 16 16" width="50px" height="50px"><path d="M 6.5820312 1 L 6.3554688 2.25 C 5.417821 2.5577802 4.577385 3.0647074 3.90625 3.734375 L 2.6699219 3.2851562 L 1.2675781 5.8066406 L 2.2675781 6.6953125 C 2.1311901 7.0982196 2 7.5035144 2 8 C 2 8.5408639 2.089583 8.9738156 2.171875 9.4003906 L 1.1679688 10.292969 L 2.5800781 12.833984 L 3.921875 12.275391 C 4.5834176 12.930273 5.4158397 13.413911 6.3535156 13.658203 L 6.5761719 15 L 9.4179688 15 L 9.6425781 13.761719 C 10.587143 13.516483 11.425697 13.026459 12.089844 12.365234 L 13.330078 12.816406 L 14.732422 10.292969 L 13.734375 9.4082031 C 13.873117 8.9619087 14 8.5171703 14 8 C 14 7.4591361 13.910417 7.0261844 13.828125 6.5996094 L 14.832031 5.7070312 L 13.419922 3.1660156 L 12.078125 3.7246094 C 11.416582 3.0697267 10.58416 2.5860889 9.6464844 2.3417969 L 9.4238281 1 L 6.5820312 1 z M 7.4179688 2 L 8.5761719 2 L 8.7636719 3.1289062 L 9.1113281 3.1914062 C 10.09064 3.369463 10.996862 3.913266 11.623047 4.6289062 L 11.861328 4.9003906 L 12.980469 4.4335938 L 13.568359 5.4921875 L 12.753906 6.2167969 L 12.810547 6.4980469 C 12.910548 6.9980469 13 7.4555556 13 8 C 13 8.5444444 12.91498 8.9674232 12.736328 9.4140625 L 12.605469 9.7402344 L 13.46875 10.507812 L 12.869141 11.583984 L 11.849609 11.212891 L 11.623047 11.470703 C 10.996862 12.186343 10.09064 12.730146 9.1113281 12.908203 L 8.7695312 12.970703 L 8.5820312 14 L 7.4238281 14 L 7.2363281 12.871094 L 6.8886719 12.808594 C 5.9093599 12.630537 5.0031384 12.086734 4.3769531 11.371094 L 4.1386719 11.099609 L 3.0195312 11.566406 L 2.4316406 10.507812 L 3.2460938 9.7832031 L 3.1894531 9.5019531 C 3.0894531 9.0019531 3 8.5444444 3 8 C 3 7.4555556 3.0927682 7.0332135 3.2480469 6.7226562 L 3.4179688 6.3808594 L 2.53125 5.5917969 L 3.1308594 4.515625 L 4.1503906 4.8867188 L 4.3769531 4.6289062 C 5.0031384 3.9132659 5.9206957 3.3577436 6.9316406 3.0820312 L 7.2363281 3 L 7.4179688 2 z M 8 5 C 6.3380952 5 5 6.3380952 5 8 C 5 9.6619048 6.3380952 11 8 11 C 9.6619048 11 11 9.6619048 11 8 C 11 6.3380952 9.6619048 5 8 5 z M 8 6 C 9.1380952 6 10 6.8619048 10 8 C 10 9.1380952 9.1380952 10 8 10 C 6.8619048 10 6 9.1380952 6 8 C 6 6.8619048 6.8619048 6 8 6 z"/></svg>