<svg xmlns="http://www.w3.org/2000/svg"  viewBox="0 0 16 16" width="50px" height="50px"><path d="M 7.5 1 C 3.9160694 1 1 3.916072 1 7.5 C 1 11.083928 3.9160694 14 7.5 14 C 11.083931 14 14 11.083928 14 7.5 C 14 3.916072 11.083931 1 7.5 1 z M 7.5 2 C 10.543491 2 13 4.4565112 13 7.5 C 13 10.543489 10.543491 13 7.5 13 C 4.4565091 13 2 10.543489 2 7.5 C 2 4.4565112 4.4565091 2 7.5 2 z M 10.146484 5.1464844 L 6.5 8.7929688 L 4.8535156 7.1464844 L 4.1464844 7.8535156 L 6.5 10.207031 L 10.853516 5.8535156 L 10.146484 5.1464844 z"/></svg>