<svg xmlns="http://www.w3.org/2000/svg"  viewBox="0 0 16 16" width="50px" height="50px"><path d="M 4.5 2 C 3.675781 2 3 2.675781 3 3.5 L 3 12.5 C 3 13.324219 3.675781 14 4.5 14 L 11.5 14 C 12.324219 14 13 13.324219 13 12.5 L 13 5.292969 L 9.707031 2 Z M 4.5 3 L 9 3 L 9 6 L 12 6 L 12 12.5 C 12 12.78125 11.78125 13 11.5 13 L 4.5 13 C 4.21875 13 4 12.78125 4 12.5 L 4 3.5 C 4 3.21875 4.21875 3 4.5 3 Z M 10 3.707031 L 11.292969 5 L 10 5 Z M 10.5 7 C 10.222656 7 10 7.222656 10 7.5 C 10 7.777344 10.222656 8 10.5 8 C 10.777344 8 11 7.777344 11 7.5 C 11 7.222656 10.777344 7 10.5 7 Z M 6.5 8.042969 L 4.648438 9.898438 L 5.351563 10.605469 L 6.5 9.457031 L 8.5 11.457031 L 9.5 10.457031 L 10.644531 11.605469 L 11.355469 10.894531 L 9.5 9.042969 L 8.5 10.042969 Z"/></svg>