<svg xmlns="http://www.w3.org/2000/svg"  viewBox="0 0 16 16" width="50px" height="50px"><path d="M 2.5 2 C 1.671875 2 1 2.671875 1 3.5 L 1 12.5 C 1 13.074219 1.328125 13.566406 1.804688 13.816406 L 3.800781 8.019531 C 4.003906 7.410156 4.574219 7 5.21875 7 L 15 7 L 15 5.5 C 15 4.671875 14.328125 4 13.5 4 L 6.796875 4 L 6.144531 2.789063 C 5.882813 2.300781 5.375 2 4.824219 2 Z M 5.21875 8 C 5.003906 8 4.8125 8.136719 4.746094 8.34375 L 2.796875 14 L 13.5 14 C 14.328125 14 15 13.328125 15 12.5 L 15 8 Z"/></svg>